REM DIRINDEX 1\2,1\3,1\4,1\5
REM DIRNAME "folder01","folder02","folder03","folder04","folder05"
TITLE ""
FILE "P1Q_t_1520-1529.mp3" MP3
  TRACK 01 AUDIO
    TITLE "3:cjc173_5538"
    INDEX 01 00:00:00
  TRACK 02 AUDIO
    TITLE "0:"
    INDEX 01 00:01:23
  TRACK 03 AUDIO
    TITLE "4:cjc173_5539"
    INDEX 01 00:01:43
  TRACK 04 AUDIO
    TITLE "0:"
    INDEX 01 00:03:60
  TRACK 05 AUDIO
    TITLE "5:cjc173_5540"
    INDEX 01 00:04:04
  TRACK 06 AUDIO
    TITLE "0:"
    INDEX 01 00:08:39
  TRACK 07 AUDIO
    TITLE "3:cjc173_5541"
    INDEX 01 00:09:09
  TRACK 08 AUDIO
    TITLE "0:"
    INDEX 01 00:10:26
  TRACK 09 AUDIO
    TITLE "4:cjc173_5542"
    INDEX 01 00:10:48
  TRACK 10 AUDIO
    TITLE "0:"
    INDEX 01 00:12:66
  TRACK 11 AUDIO
    TITLE "5:cjc173_5543"
    INDEX 01 00:13:09
  TRACK 12 AUDIO
    TITLE "0:"
    INDEX 01 00:16:66
  TRACK 13 AUDIO
    TITLE "3:cjc173_5544"
    INDEX 01 00:17:38
  TRACK 14 AUDIO
    TITLE "0:"
    INDEX 01 00:18:57
  TRACK 15 AUDIO
    TITLE "4:cjc173_5545"
    INDEX 01 00:19:02
  TRACK 16 AUDIO
    TITLE "0:"
    INDEX 01 00:20:25
  TRACK 17 AUDIO
    TITLE "5:cjc173_5546"
    INDEX 01 00:20:44
  TRACK 18 AUDIO
    TITLE "0:"
    INDEX 01 00:24:34
  TRACK 19 AUDIO
    TITLE "3:cjc173_5547"
    INDEX 01 00:25:06
  TRACK 20 AUDIO
    TITLE "0:"
    INDEX 01 00:26:16
  TRACK 21 AUDIO
    TITLE "4:cjc173_5548"
    INDEX 01 00:26:37
  TRACK 22 AUDIO
    TITLE "0:"
    INDEX 01 00:29:55
  TRACK 23 AUDIO
    TITLE "5:cjc173_5549"
    INDEX 01 00:30:00
  TRACK 24 AUDIO
    TITLE "0:"
    INDEX 01 00:34:37
  TRACK 25 AUDIO
    TITLE "3:cjc173_5550"
    INDEX 01 00:35:11
  TRACK 26 AUDIO
    TITLE "0:"
    INDEX 01 00:36:12
  TRACK 27 AUDIO
    TITLE "4:cjc173_5551"
    INDEX 01 00:36:34
  TRACK 28 AUDIO
    TITLE "0:"
    INDEX 01 00:40:20
  TRACK 29 AUDIO
    TITLE "5:cjc173_5552"
    INDEX 01 00:40:39
  TRACK 30 AUDIO
    TITLE "0:"
    INDEX 01 00:44:37
  TRACK 31 AUDIO
    TITLE "3:cjc173_5553"
    INDEX 01 00:45:07
  TRACK 32 AUDIO
    TITLE "0:"
    INDEX 01 00:46:20
  TRACK 33 AUDIO
    TITLE "4:cjc173_5554"
    INDEX 01 00:46:42
  TRACK 34 AUDIO
    TITLE "0:"
    INDEX 01 00:48:62
  TRACK 35 AUDIO
    TITLE "5:cjc173_5555"
    INDEX 01 00:49:07
  TRACK 36 AUDIO
    TITLE "0:"
    INDEX 01 00:53:22
  TRACK 37 AUDIO
    TITLE "3:cjc173_5556"
    INDEX 01 00:53:67
  TRACK 38 AUDIO
    TITLE "0:"
    INDEX 01 00:55:05
  TRACK 39 AUDIO
    TITLE "4:cjc173_5557"
    INDEX 01 00:55:25
  TRACK 40 AUDIO
    TITLE "0:"
    INDEX 01 00:59:40
  TRACK 41 AUDIO
    TITLE "5:cjc173_5558"
    INDEX 01 00:59:60
  TRACK 42 AUDIO
    TITLE "0:"
    INDEX 01 01:04:12
  TRACK 43 AUDIO
    TITLE "3:cjc173_5559"
    INDEX 01 01:04:57
  TRACK 44 AUDIO
    TITLE "0:"
    INDEX 01 01:06:03
  TRACK 45 AUDIO
    TITLE "4:cjc173_5560"
    INDEX 01 01:06:23
  TRACK 46 AUDIO
    TITLE "0:"
    INDEX 01 01:09:29
  TRACK 47 AUDIO
    TITLE "5:cjc173_5561"
    INDEX 01 01:09:51
  TRACK 48 AUDIO
    TITLE "0:"
    INDEX 01 01:14:69
  TRACK 49 AUDIO
    TITLE "3:cjc173_5562"
    INDEX 01 01:15:39
  TRACK 50 AUDIO
    TITLE "0:"
    INDEX 01 01:16:70
  TRACK 51 AUDIO
    TITLE "4:cjc173_5563"
    INDEX 01 01:17:15
  TRACK 52 AUDIO
    TITLE "0:"
    INDEX 01 01:21:48
  TRACK 53 AUDIO
    TITLE "5:cjc173_5564"
    INDEX 01 01:21:70
  TRACK 54 AUDIO
    TITLE "0:"
    INDEX 01 01:26:20
  TRACK 55 AUDIO
    TITLE "3:cjc173_5565"
    INDEX 01 01:26:65
  TRACK 56 AUDIO
    TITLE "0:"
    INDEX 01 01:28:01
  TRACK 57 AUDIO
    TITLE "4:cjc173_5566"
    INDEX 01 01:28:19
  TRACK 58 AUDIO
    TITLE "0:"
    INDEX 01 01:32:14
  TRACK 59 AUDIO
    TITLE "5:cjc173_5567"
    INDEX 01 01:32:34
  TRACK 60 AUDIO
    TITLE "0:"
    INDEX 01 01:37:10
